<svg xmlns="http://www.w3.org/2000/svg" width="162" height="181" fill="none">
  <path fill="#FFCE00"
    d="M54.551 168.087s-16.401-5.217-21.963-1.998c0 0-6.438 2.972-4.071 10.599 0 0 4.634 3.203 14.134 1.437l11.9-10.038Z" />
  <path fill="#FFCE00"
    d="M54.551 168.087s-16.401-5.217-21.963-1.998c0 0-6.438 2.972-4.071 10.599 0 0 4.634 3.203 14.134 1.437l11.9-10.038Z" />
  <path fill="#E5AF0E"
    d="M35.634 165.18a9.323 9.323 0 0 1-.298 1.783l-.497 1.981c-.182.661-.397 1.321-.761 1.899-.629.941-1.655 1.403-2.73 1.635-.58.115-1.176.181-1.755.231-.348.033-.695.082-1.043.115-.149.017-.314.017-.463.017-.083 1.122.05 2.394.496 3.847 0 0 4.634 3.202 14.135 1.436L54.6 168.102c-.05-.016-12.016-3.813-18.967-2.922Z" />
  <path fill="#C1981C"
    d="m42.138 165.329-1.092.248c-1.126.313-2.235.759-3.178 1.452-.96.71-1.688 1.701-2.35 2.691-1.341 1.982-2.45 4.227-4.337 5.779-.728.611-1.555 1.024-2.433 1.304 1.043.595 5.628 2.84 13.903 1.288l11.883-10.022c.017.017-6.272-1.981-12.396-2.74Z" />
  <path fill="#FFCE00"
    d="M59.715 166.171s15.144-1.668 16.203 5.977c0 0 .066 2.806-1.638 3.879 0 0-10.014-1.535-29.808 4.59 0 0-6.488.677-9.103.231 0 0-2.566-15.536 11.122-14.611 0 0 4.353.396 6.736.347 2.367-.05 6.488-.413 6.488-.413Z" />
  <path fill="#FFCE00"
    d="M59.715 166.171s15.144-1.668 16.203 5.977c0 0 .066 2.806-1.638 3.879 0 0-10.014-1.535-29.808 4.59 0 0-6.488.677-9.103.231 0 0-2.566-15.536 11.122-14.611 0 0 4.353.396 6.736.347 2.367-.05 6.488-.413 6.488-.413Z" />
  <path fill="#E5AF0E"
    d="M75.918 172.148c-1.06-7.645-16.203-5.977-16.203-5.977s-4.105.363-6.488.413c-2.383.066-6.736-.347-6.736-.347-.728-.05-1.407-.05-2.036-.017.232.364.414.776.53 1.189.165.628.132 1.354.083 1.998a8.39 8.39 0 0 1-.48 2.212c-.514 1.404-1.523 2.576-2.698 3.467-1.208.908-2.648 1.569-4.154 1.75-.811.099-1.606.05-2.384-.231-.033-.016-.066-.033-.116-.049-.165 2.41.133 4.292.133 4.292 2.615.446 9.103-.231 9.103-.231 19.794-6.125 29.808-4.59 29.808-4.59 1.704-1.056 1.638-3.879 1.638-3.879Z" />
  <path fill="#C1981C"
    d="M75.918 172.147c-1.06-7.644-16.203-5.976-16.203-5.976s-1.473.132-3.178.248c.182 1.139.15 2.294-.182 3.434-.05.908-.182 1.816-.414 2.707-.198.727-.446 1.42-.777 2.08-.282.578-.613 1.107-1.06 1.552-.81.809-1.87 1.272-2.93 1.635-.562.181-1.125.347-1.687.528-.613.198-1.209.429-1.82.694-1.408.61-2.848 1.172-4.337 1.568a8.762 8.762 0 0 1-.712.165c1.093-.082 1.854-.165 1.854-.165 19.794-6.125 29.808-4.59 29.808-4.59 1.704-1.056 1.638-3.88 1.638-3.88Z" />
  <path fill="#FFCE00"
    d="M117.196 168.086s16.401-5.217 21.962-1.998c0 0 6.439 2.972 4.072 10.6 0 0-4.634 3.203-14.134 1.436l-11.9-10.038Z" />
  <path fill="#FFCE00"
    d="M117.196 168.086s16.401-5.217 21.962-1.998c0 0 6.439 2.972 4.072 10.6 0 0-4.634 3.203-14.134 1.436l-11.9-10.038Z" />
  <path fill="#E5AF0E"
    d="M136.113 165.18c.033.595.149 1.205.298 1.783l.497 1.981c.182.661.397 1.321.761 1.899.629.941 1.655 1.403 2.731 1.635.579.115 1.175.181 1.754.231.348.033.695.082 1.043.115.149.017.315.017.463.017.083 1.122-.049 2.394-.496 3.847 0 0-4.634 3.202-14.134 1.436l-11.884-10.022c.05-.016 12.033-3.813 18.967-2.922Z" />
  <path fill="#C1981C"
    d="m129.609 165.329 1.092.248c1.126.313 2.235.759 3.178 1.452.96.71 1.688 1.701 2.35 2.691 1.341 1.982 2.45 4.227 4.336 5.779.729.611 1.556 1.024 2.433 1.304-1.042.595-5.627 2.84-13.902 1.288l-11.884-10.022c-.016.017 6.29-1.981 12.397-2.74Z" />
  <path fill="#FFCE00"
    d="M112.049 166.171s-15.144-1.668-16.204 5.976c0 0-.066 2.807 1.639 3.88 0 0 10.013-1.535 29.808 4.59 0 0 6.488.677 9.103.231 0 0 2.565-15.536-11.122-14.611 0 0-4.353.396-6.736.346-2.384-.049-6.488-.412-6.488-.412Z" />
  <path fill="#FFCE00"
    d="M112.049 166.171s-15.144-1.668-16.204 5.976c0 0-.066 2.807 1.639 3.88 0 0 10.013-1.535 29.808 4.59 0 0 6.488.677 9.103.231 0 0 2.565-15.536-11.122-14.611 0 0-4.353.396-6.736.346-2.384-.049-6.488-.412-6.488-.412Z" />
  <path fill="#E5AF0E"
    d="M95.845 172.147c1.06-7.644 16.203-5.976 16.203-5.976s4.105.363 6.488.412c2.384.066 6.736-.346 6.736-.346.729-.05 1.407-.05 2.036-.017a4.493 4.493 0 0 0-.529 1.189c-.166.627-.133 1.354-.083 1.998.066.759.215 1.502.48 2.212.513 1.403 1.522 2.575 2.698 3.467 1.208.908 2.648 1.568 4.154 1.75.811.099 1.605.05 2.383-.231a.785.785 0 0 1 .116-.05c.166 2.411-.132 4.293-.132 4.293-2.615.446-9.103-.231-9.103-.231-19.795-6.125-29.808-4.59-29.808-4.59-1.721-1.057-1.639-3.88-1.639-3.88Z" />
  <path fill="#C1981C"
    d="M95.845 172.147c1.06-7.644 16.203-5.976 16.203-5.976s1.473.132 3.178.247c-.182 1.14-.149 2.295.182 3.434.05.908.182 1.816.414 2.708.199.726.447 1.42.778 2.08.281.578.612 1.106 1.059 1.552.811.809 1.87 1.271 2.93 1.635.562.181 1.125.346 1.688.528.612.198 1.208.429 1.82.693 1.407.611 2.847 1.173 4.337 1.569.231.066.463.115.711.165-1.092-.083-1.853-.165-1.853-.165-19.795-6.125-29.808-4.59-29.808-4.59-1.721-1.057-1.639-3.88-1.639-3.88Z" />
  <path fill="#F36C38"
    d="m109.202 93.165 4.568 14.198 2.3 7.149s5.396 1.965 7.647-3.005c2.251-4.969 3.012-9.774 11.089-12.498 7.464-2.526 15.938-10.07 18.934-28.446.248-1.47.447-3.021.612-4.64v.017c.116.248 1.837 3.616 5.975 5.448.066.033.116.05.166.083.115.05.248.099.364.148.331.133.662.248 1.026.347.033.017.05.017.05.017h.016s-2.764-4.062-2.069-8.288c.695-4.243 4.469-17.83-.116-25.442-4.584-7.61-5.677-8.783-5.677-8.783l-.347-3.434s.761-1.403-4.022-6.703c0 0 .166-1.32.596-3.302.927-4.292 3.062-11.755 7.398-16.014l.017-.017c-.696.38-23.039 12.894-29.61 41.093-6.686 28.644-18.917 52.072-18.917 52.072Z" />
  <path fill="#FE7C44"
    d="M140.433 19.25c0 .017-.016.033-.016.033.397-.43.777-.875 1.141-1.337-.479.33-.844.825-1.125 1.304Z" />
  <path fill="#FE7C44"
    d="M131.595 30.444c1.407-2.46 2.797-4.986 4.733-7.083 1.225-1.304 2.582-2.493 3.824-3.78.132-.281.281-.562.446-.842.331-.512.745-.991 1.308-1.239.017-.016 0 .248-.017.265a17.625 17.625 0 0 1-1.771 2.096c-.612 1.288-.943 2.74-1.208 4.128a30.021 30.021 0 0 0-.513 4.226c.96-.396 1.788-1.073 2.532-1.8.745-.726 1.407-1.518 2.053-2.31.463-.562.86-1.173 1.274-1.767.348-.495.778-1.123 1.374-1.321.645-.215 1.175.33 1.506.809.463.66.645 1.486.828 2.262.099.412.198.809.331 1.205.132.396.314.776.496 1.172.414.908.844 1.8 1.357 2.658.133.215.248.43.397.628.05.066.1.165.166.23.083.083.05.083.116-.016.016-.033.049-.099.049-.132.199-.495.282-1.04.348-1.568.116-.925.166-1.866.513-2.757.017-.033.017-.017.033 0 .513 1.354.977 2.74 1.523 4.094.265.644.53 1.271.844 1.899.331.66.712 1.287 1.076 1.931.711 1.255 1.407 2.543 2.118 3.798.646 1.139 1.374 2.228 1.937 3.417 1.042 2.163 1.506 4.557 1.704 6.934.216 2.477.166 4.953.166 7.43v1.898c.993-5.844 1.655-13.57-1.407-18.656-4.584-7.61-5.677-8.783-5.677-8.783l-.347-3.434s.761-1.403-4.022-6.703c0 0 .165-1.32.596-3.302.926-4.292 3.062-11.755 7.398-16.014l.016-.017c-.595.33-17.461 9.774-26.216 30.626.05-.066.083-.116.116-.182Z" />
  <path fill="#F6BF74"
    d="M150.314 6.39c.033 0 0 .231-.017.264a26.57 26.57 0 0 0-1.009 1.932c-1.01 2.08-1.821 4.243-2.682 6.389a169.21 169.21 0 0 0 2.003-2.807c1.274-1.832 2.549-3.665 4.005-5.349a23.81 23.81 0 0 1 1.242-1.337c1.026-2.03 2.284-3.946 3.823-5.448l.016-.017c-.297.165-4.402 2.46-9.549 7.149a9.721 9.721 0 0 1 2.168-.776ZM155.229 31.385c1.308 2.162 2.549 4.342 3.575 6.637 1.01 2.261 1.837 4.606 2.367 7.016.298 1.338.513 2.708.712 4.062.033.198.049.396.082.594.166-4.11-.297-8.288-2.201-11.458-3.74-6.19-5.147-8.122-5.544-8.618.298.628.662 1.205 1.009 1.767Z" />
  <path fill="#903A1E"
    d="M145.001 80.437a35.989 35.989 0 0 1-2.284-3.401 49.303 49.303 0 0 1-2.185-4.127c-1.39-2.972-2.449-6.126-2.83-9.395a26.635 26.635 0 0 1-.149-3.037c-.48.528-1.009.974-1.655 1.304-1.423.76-3.244.99-4.75.347-1.324-.562-2.317-1.7-3.045-2.923-.894-1.502-1.473-3.186-1.92-4.87a35.736 35.736 0 0 1-.695-3.203c-6.819 23.89-16.286 42.034-16.286 42.034l4.568 14.198 2.3 7.149s5.396 1.965 7.647-3.005c2.251-4.969 3.012-9.773 11.089-12.498 5.081-1.717 10.609-5.745 14.581-13.917a29.248 29.248 0 0 1-4.386-4.656Z" />
  <path fill="#CC5A2F"
    d="m146.027 66.897 6.19 2.939 1.506.71c.249-1.47.447-3.021.613-4.64v.017c.116.248 1.837 3.616 5.975 5.448.066.033.115.05.165.083.116.05.248.099.364.149-1.853-2.477-3.691-5.795-3.691-9.262 0-6.968 3.145-11.227 2.417-19.433 0 0-2.102 14.314-5.892 18.574 0 0-1.589-6.918-.679-16.378.91-9.46.116-12.63.116-12.63s-2.416 13.307-4.535 16.824c0 0-1.655-20.902.315-28.348 1.969-7.445-8.243 20.374-8.226 24.468.05 4.094 5.362 21.48 5.362 21.48Z" />
  <path fill="#260E07"
    d="m113.77 107.364 2.301 7.149s5.395 1.965 7.646-3.005c2.251-4.969 3.012-9.774 11.089-12.498s17.295-11.326 19.546-33.085l-1.208 1.452s-2.615-5.035-1.903-19.167c-.099.577-1.771 9.806-3.724 13.934 0 0-3.079-9.444-1.804-22.255.662-6.753 2.151-16.015 4.601-23.84.927-4.293 3.062-11.756 7.398-16.015-.943.858-20.937 19.564-23.187 59.914-1.473 25.607-12.546 40.102-20.755 47.416Z" />
  <path fill="#FE8354" d="M146.788 9.74s-15.623 13.587-16.468 32.904L146.788 9.74Z" />
  <path fill="#FEC9AA"
    d="M135.849 27.703a42.704 42.704 0 0 0 2.3-4.607c.679-1.617 1.291-3.268 1.721-4.952.067-.281.133-.545.182-.826-3.111 4.194-6.521 9.939-8.374 16.774.43-.693.894-1.37 1.34-2.047.977-1.437 1.97-2.84 2.831-4.342Z" />
  <path fill="#3D467B"
    d="M112.181 91.399s35.865 44.328 8.54 72.494c-27.325 28.166-78.153-2.724-77.21-7.892.928-5.167-4.418-33.911 5.578-45.484 9.997-11.573 37.869-29.19 63.092-19.118Z" />
  <path fill="#4F5E9D"
    d="M115.905 96.549c.066.28.132.561.199.825.397 1.569 1.059 3.104 1.588 4.623 1.109 3.252 2.036 6.554 3.079 9.823.53 1.668 1.059 3.319 1.622 4.986.513 1.552 1.125 3.088 1.605 4.656 1.523 4.986 2.168 10.286 1.771 15.486-.38 5.069-1.82 10.352-4.982 14.43-3.376 4.358-8.407 7.264-13.174 9.856h-.017c-.546-1.155-.43-2.427-.082-3.615-.53.429-1.076.875-1.606 1.32-4.137 3.517-7.96 7.413-12.744 10.071-4.766 2.642-10.178 3.748-15.574 4.111-1.06.066-2.135.116-3.194.132 15.425 4.062 33.498 3.897 46.358-9.361 21.665-22.354 3.559-54.862-4.849-67.343Z" />
  <path fill="#363960"
    d="M49.09 110.517c9.996-11.573 37.867-29.19 63.091-19.118 0 0 15.425 19.052 18.338 40.118-.149-.148-.298-.28-.447-.429-3.889-3.549-9.798-5.481-14.829-3.285-2.35 1.023-4.287 2.757-6.008 4.589-.944.991-1.837 2.048-2.731 3.088-.116.132-.232.28-.364.413-.066.082-.248.379-.364.412-.182.066-.431-.231-.563-.346a11.531 11.531 0 0 1-1.076-1.123c-1.274-1.536-2.234-3.335-3.641-4.788-1.49-1.535-3.36-2.262-5.511-1.932-1.01.149-2.301.38-3.013 1.206-.678.792-.844 2.063-.794 3.07.083 1.486.745 2.857 1.109 4.276a7.669 7.669 0 0 1-1.225-.247c-5.28-1.486-10.741-7.76-16.484-4.194-1.291.809-1.838 2.064-1.987 3.55-.148 1.387.183 2.724.282 4.094.05.694.05 1.503-.033 2.13-.017.165-.05.281-.1.446a4.336 4.336 0 0 1-.297.627c-.596 1.007-1.59 1.783-2.45 2.559-1.258 1.156-2.4 2.361-3.36 3.781-1.01 1.502-1.787 3.137-2.367 4.837-1.125 3.401-1.589 7.529-.132 10.913 1.142 2.675 3.658 4.475 6.025 6.01.91.578 1.837 1.139 2.763 1.7-16.683-4.721-29.94-14.214-29.46-16.873.977-5.184-4.37-33.911 5.627-45.484Z" />
  <path fill="#2E283F"
    d="M55.793 151.957a51.7 51.7 0 0 1 2.946-4.838c1.026-1.502 2.184-2.922 3.16-4.457.944-1.503 1.871-3.22 1.689-5.052-.281-2.989-2.83-5.052-3.674-7.826-.364-1.172-.398-2.526.082-3.682.464-1.122 1.424-1.865 2.5-2.377 1.191-.578 2.482-.908 3.757-1.271 1.82-.529 3.492-1.338 5.18-2.196 1.655-.842 3.327-1.717 5.13-2.147 1.821-.429 3.56-.099 5.247.628 1.738.743 3.377 1.667 5.131 2.377 1.672.677 3.393 1.205 5.197 1.453 1.854.248 3.74.182 5.61.215 1.838.033 3.675.049 5.512-.017 3.376-.115 6.852-.495 9.964-1.865 0-.066.016-.149.049-.149.282-.017.563-.165.795-.314.281-.181.546-.379.811-.578.248-.198.496-.396.761-.594.281-.214.596-.38.894-.561 2.863-1.618 6.024-2.642 8.904-4.227.066-.033.116-.066.182-.099-5.561-13.257-13.439-22.981-13.439-22.981-25.223-10.071-53.095 7.545-63.091 19.118-9.997 11.573-4.651 40.317-5.578 45.484-.199 1.14 2.118 3.55 6.157 6.291 0-.017.016-.017.016-.033 1.225-1.536 2.268-3.187 3.244-4.887 1.01-1.767 1.904-3.599 2.864-5.415Z" />
  <path fill="#535C8E"
    d="M114.895 143.685c.282.132.579.214.877.314l.894.231.099.033.116-.017c.53-.099.96-.231 1.407-.396.43-.165.844-.38 1.241-.611.199-.115.398-.231.58-.363.099-.066.182-.132.281-.198.116-.05.149-.165.215-.264.166-.248.298-.512.397-.776-.662.71-1.555 1.221-2.515 1.552-1.341.462-3.244.231-3.989-.958a3.805 3.805 0 0 1-1.324-1.42c-.017-.115-.132-.198-.232-.297-.099-.099-.165-.198-.265-.297-.066-.099-.149-.198-.215-.297a16.203 16.203 0 0 0 1.688-1.849c.298-.38.58-.76.828-1.173.132-.198.248-.396.364-.611l.066-.148.596.181.348.1.347.066.431.066c.628-.165 1.224-.413 1.82-.661a12.033 12.033 0 0 0 2.301-1.288c.711-.511 1.324-1.106 1.953-1.7.165-.165.314-.347.48-.528a7.04 7.04 0 0 1-1.142.726c-.315.132-.497.38-.778.545a8.42 8.42 0 0 1-.811.512c-.563.313-1.142.594-1.755.825-.579.215-1.208.396-1.787.495l-.513-.082-.298-.05a1.358 1.358 0 0 1-.281-.082l-.58-.165-.546-.231c-.712-.347-1.407-.776-1.969-1.338a8.859 8.859 0 0 1-1.507-1.832c-.066-.182-.264-.314-.38-.479-.133-.149-.282-.314-.414-.479a7.374 7.374 0 0 1-.463-.561c.281-.149.546-.314.811-.479.38-.264.761-.512 1.125-.809a14.997 14.997 0 0 0 1.97-1.866c.43-.511.827-1.023 1.191-1.601l.033.017c.215.148.414.313.629.445.431.281.894.562 1.357.793.48.231.977.446 1.49.611.265.082.53.148.794.198.282.049.53.099.878.099h.115l.1-.05c.364-.165.761-.313 1.109-.512.347-.214.678-.429.993-.693a10.051 10.051 0 0 0 2.88-3.616 8.948 8.948 0 0 0 .695-2.129 9.602 9.602 0 0 1-1.043 1.948 9.238 9.238 0 0 1-1.44 1.667c-.53.496-1.109.958-1.754 1.321-.315.198-.646.347-.977.512-.281.165-.579.297-.877.429-.149-.016-.331-.033-.497-.066a4.888 4.888 0 0 1-.662-.165 7.385 7.385 0 0 1-1.291-.528c-.43-.215-.827-.446-1.224-.71-.199-.132-.381-.281-.58-.413l-.562-.446-.596-.479-.331.628a10.688 10.688 0 0 1-1.407 1.998 12.92 12.92 0 0 1-1.821 1.733c-.314.264-.678.495-1.026.743-.364.215-.728.446-1.109.627-.728.38-1.506.661-2.3.908a7.18 7.18 0 0 1-.977-.132 12.987 12.987 0 0 1-1.092-.247 16.344 16.344 0 0 1-2.135-.743c-.679-.314-1.374-.628-2.003-1.024-.331-.181-.629-.396-.96-.594a17.948 17.948 0 0 1-.91-.661l-.513-.363-.364.462a11.794 11.794 0 0 1-1.407 1.486c-.53.463-1.109.859-1.705 1.222a8.398 8.398 0 0 1-1.936.842c-.645.215-1.308.314-1.986.38a9.527 9.527 0 0 1-1.308-.545 7.491 7.491 0 0 1-1.307-.809 8.265 8.265 0 0 1-1.159-.991c-.364-.346-.678-.743-.976-1.139l-.811-1.073-.282 1.255c-.05.214-.149.512-.264.759a6.662 6.662 0 0 1-.398.76 8.599 8.599 0 0 1-1.059 1.387c-.215.198-.43.412-.662.61-.116.099-.215.215-.33.314l-.348.297c-.216.198-.48.38-.712.562-.215.148-.43.28-.646.429a12.861 12.861 0 0 1-1.042-.347 7.928 7.928 0 0 1-1.192-.578 6.85 6.85 0 0 1-1.076-.743 4.883 4.883 0 0 1-.877-.974c.182.397.43.76.712 1.106.298.331.629.644.993.925a10.666 10.666 0 0 0 2.433 1.37l.149.066.182-.082c.298-.149.612-.281.893-.429.282-.166.596-.314.861-.496a6.706 6.706 0 0 0 1.54-1.271c.446-.479.86-1.007 1.208-1.568.165-.265.297-.529.43-.809.132.148.248.28.38.412.398.413.845.776 1.308 1.123.464.347.96.644 1.473.908.53.264 1.043.495 1.655.677l.1.033.099-.017c.81-.066 1.638-.181 2.4-.445.761-.248 1.506-.562 2.168-.958a12.924 12.924 0 0 0 1.887-1.337c.43-.38.827-.776 1.208-1.205.165.115.314.231.48.33.33.214.662.446 1.009.644.679.412 1.424.776 2.152 1.089.745.314 1.506.595 2.3.809.795.215 1.573.38 2.45.43h.099l.1-.033c.893-.281 1.804-.578 2.615-1.024.033-.017.066-.033.082-.05.033.215.067.446.116.661.05.214.1.413.166.627.066.215.116.429.265.611.496.743 1.042 1.436 1.721 2.064a8.83 8.83 0 0 0 2.3 1.552l.629.264-.082.099c-.149.182-.315.347-.48.512-.331.346-.662.66-1.027.974a17.092 17.092 0 0 1-2.25 1.7c-.398.248-.811.479-1.176.76-.182.132-.397.247-.595.363-.199.116-.398.248-.613.33-.397.215-.811.396-1.225.561-.049.364-.132.677-.215.661-.132-.033-.182-.248-.198-.512-.215.083-.447.149-.662.231-.033.479-.149.974-.232.958-.199-.05-.232-.512-.182-.958-.281-.066-.563-.132-.844-.214-.05.297-.116.511-.182.495-.149-.033-.199-.297-.199-.611a10.865 10.865 0 0 1-.695-.215 20.269 20.269 0 0 1-2.234-.908c-.712-.363-1.391-.759-2.003-1.238a2.419 2.419 0 0 1-.314-.281c-.1.397-.265.743-.381.71-.166-.033-.116-.594.016-1.073a5.938 5.938 0 0 1-.827-1.007l-.563-.858-.116.198c-.48 1.221-1.158 2.344-2.184 3.302-.563.528-1.209.957-1.87 1.37-.646.413-1.325.792-2.086 1.007a3.73 3.73 0 0 1-1.026.132c-.1.314-.232.545-.331.512-.1-.033-.116-.264-.083-.561a4.314 4.314 0 0 1-1.192-.347c-.082.248-.198.413-.28.396-.1-.033-.117-.264-.084-.561-.579-.281-1.142-.628-1.704-.974-.613-.363-1.341-.826-1.953-1.354-.1.396-.265.759-.381.726-.166-.033-.116-.594.017-1.073-.315-.33-.596-.677-.762-1.056l-.364.148c-.53.215-1.092.413-1.655.595-.563.181-1.142.346-1.721.462-.58.132-1.159.248-1.738.297-.497.066-1.01.033-1.49.033a8.42 8.42 0 0 1-.629-.941 7.749 7.749 0 0 1-.596-1.304 4.437 4.437 0 0 1-.231-1.387 2.97 2.97 0 0 1 .397-1.37 3.232 3.232 0 0 0-.728 1.32c-.116.496-.116 1.024-.05 1.536s.215 1.023.397 1.519c.182.495.398.957.695 1.453l.1.165.314.066c.679.148 1.357.066 2.003.016a17.3 17.3 0 0 0 1.887-.313 22.993 22.993 0 0 0 1.82-.496c.43-.132.86-.28 1.291-.446.315.413.695.793 1.093 1.123.546.429 1.125.809 1.72 1.123.613.313 1.226.578 1.871.809.646.231 1.275.429 1.97.578l.149.033.132-.033c.397-.116.811-.199 1.208-.331.15-.049.315-.099.48-.165-.033.496 0 1.007.182 1.47.199.396.447.792.728 1.155-.099.066-.215.116-.314.182-.215.132-.48.215-.629.38-.05.198-.132.396-.232.561-.397.66-1.059 1.255-1.77 1.618-.398.198-.878.38-1.374.462-.067.149-.15.231-.199.215-.05-.017-.083-.083-.1-.182-.148.017-.28.017-.43.017-.099.297-.215.512-.314.495-.1-.033-.116-.248-.083-.528a6.041 6.041 0 0 1-.513-.132c-.066.148-.149.231-.215.214-.083-.016-.1-.165-.1-.346a4.202 4.202 0 0 1-1.092-.727c-.248-.231-.513-.479-.695-.776-.1-.165-.232-.313-.314-.479-.066-.099-.05-.313-.15-.379-.016-.017-.016-.033-.032-.033 0 .379.033.792.149 1.188.066.199.099.43.281.545a4.995 4.995 0 0 0 1.523 1.205c.198.1.413.182.629.265.231.066.413.132.728.148h.1c.645-.082 1.307-.198 1.902-.429.232-.083.464-.182.696-.297.033.247.115.495.248.743.215.396.546.743.943.99.1.066.199.132.298.182l.315.148c.215.1.43.182.678.232l.679.066.298.016c.149.215.281.413.447.611.115.149.248.281.364.413l.397.396a6.88 6.88 0 0 0 1.87 1.255 7.27 7.27 0 0 0 2.185.66c.38.066.761.066 1.125.083.381 0 .745-.033 1.126-.066h.066l.083-.033c.298-.132.562-.265.844-.413.265-.149.546-.297.794-.479.265-.181.513-.363.745-.594.083-.066.149-.149.215-.231.05.033.116.082.166.115.248.165.529.297.794.429a7.728 7.728 0 0 0 1.655.529c.563.132 1.126.198 1.688.247l.844.05h.878l.049-.017c.133-.033.182-.049.249-.082.066-.033.132-.05.182-.083.116-.066.215-.132.314-.198.182-.148.381-.28.513-.462.248-.363.397-.743.513-1.123.066-.181.1-.379.133-.578.033-.198.049-.379.066-.577.016-.166.016-.347.016-.512a6.79 6.79 0 0 0 1.291.33c.629.099 1.275.05 1.904-.05h.033l.033-.016a7.98 7.98 0 0 0 1.274-.545 8.159 8.159 0 0 0 1.672-1.139c.083-.066.165-.165.248-.231.1-.066.133-.182.166-.297.132-.298.215-.611.248-.908-.579.743-1.142 1.535-1.986 2.047-.795.479-1.688.693-2.632.66-1.009-.016-2.052-.148-2.946-.644-.744-.412-1.605-.941-2.135-1.601.066.165.133.347.215.512.067.132.149.264.232.396.083.132.149.264.298.33a8.83 8.83 0 0 0 1.572.941c.1.05.199.083.282.116l-.232.479c-.083.165-.166.33-.265.478l-.198.297a.943.943 0 0 1-.199.298c-.149.132-.199.33-.314.495a2.75 2.75 0 0 1-.348.413c-.281.28-.629.511-.993.693-.745.363-1.539.33-2.367.182-.86-.149-1.556-.446-2.317-.842-.314-.165-.662-.347-.943-.562a4.344 4.344 0 0 1-1.854 1.519c-1.01.43-2.251.545-3.327.281-1.903-.462-4.137-1.849-4.37-3.814-.098.314-.214.545-.33.512-.132-.033-.116-.413-.05-.809l-.298-.017c-.182-.016-.364-.049-.562-.082-.166-.05-.364-.033-.547-.066l-.264-.05c-.083-.016-.166-.049-.265-.066-.348-.115-.679-.264-.96-.528a2.554 2.554 0 0 1-.464-.561c.298-.149.563-.297.828-.479a9.696 9.696 0 0 0 1.423-1.156c.282-.165.348-.512.447-.792l.05-.198c.05.066.116.132.165.198.497.545 1.093 1.007 1.722 1.403.314.198.645.38.993.528.347.165.678.298 1.092.413l.083.017h.083a6.12 6.12 0 0 0 1.837-.331 10.076 10.076 0 0 0 1.589-.742c.248-.149.479-.298.711-.463l.348-.247a.416.416 0 0 0 .165-.132.681.681 0 0 0 .116-.182c.215-.297.397-.611.563-.941.033.049.066.099.116.132.116.082.215.165.331.248a6.498 6.498 0 0 0 2.201 1.122c.53.165 1.076.231 1.622.281h.083l.066-.017a5.665 5.665 0 0 0 1.059-.33c.331-.132.646-.28.944-.462.612-.33 1.158-.743 1.671-1.172.497-.446.96-.925 1.374-1.453.05-.066.132-.116.149-.198l.083-.248.149-.479c.033-.115.049-.231.082-.363.083.066.149.149.232.215a6.69 6.69 0 0 0 1.688 1.073Zm-2.532-1.205-.397.297c-.133.099-.265.181-.331.314a9.288 9.288 0 0 1-1.242 1.304c-.38.313-.778.611-1.208.875-.099.413-.265.776-.397.759-.099-.016-.116-.214-.099-.462-.199.099-.398.198-.613.281a3.942 3.942 0 0 1-.463.165c-.099.429-.265.825-.397.792-.133-.033-.116-.363-.067-.726a4.9 4.9 0 0 1-1.092-.215c-.099.281-.215.479-.298.462-.116-.033-.116-.28-.083-.594a6.672 6.672 0 0 1-.844-.396 3.26 3.26 0 0 1-.546-.38 2.796 2.796 0 0 1-.248-.215c-.083-.082-.199-.115-.298-.165a7.27 7.27 0 0 1-1.258-.842c.033.463.199.908.43 1.338-.38.181-.744.346-1.108.511-.133.05-.265.1-.331.199-.1.082-.199.165-.298.231-.216.148-.431.28-.646.412a6.421 6.421 0 0 1-1.026.496 4.433 4.433 0 0 0-.05.214c-.033.099-.066.182-.099.281-.016.066-.066.116-.1.165-.016.033-.049.05-.099.066h-.016c-.05-.033-.083-.082-.066-.148 0-.05 0-.099-.017-.149 0-.083.017-.165.017-.248a5.401 5.401 0 0 1-1.026.215c-.1.396-.265.759-.381.726-.132-.033-.116-.379-.05-.776a4.754 4.754 0 0 1-.612-.247c-.083-.033-.15-.083-.232-.116-.1.264-.199.446-.298.43-.116-.033-.116-.298-.083-.628l-.248-.148c-.231-.133-.447-.298-.645-.446-.1.28-.215.495-.315.479-.132-.033-.116-.397-.05-.776-.165-.149-.314-.298-.463-.446-.43-.462-.81-.958-1.06-1.519-.032-.149-.198-.248-.28-.38l-.315-.396c-.116-.116-.182-.264-.281-.396.099-.033.215-.083.314-.116a12.053 12.053 0 0 0 2.201-1.139 12.223 12.223 0 0 0 1.904-1.519c.38-.363.712-.743 1.026-1.172.364.446.778.842 1.225 1.205.695.545 1.456.991 2.217 1.387.778.396 1.589.71 2.4.974.828.281 1.639.512 2.516.677l.149.033.132-.05c.977-.297 1.953-.66 2.847-1.122.232-.099.447-.248.662-.363.215-.116.43-.248.646-.38.215-.132.43-.248.629-.413l.364-.314c0 .149-.017.298 0 .446.016.149 0 .33.116.446.182.33.397.644.645.924-.099.1-.232.199-.364.298Z" />
  <path fill="#9CCAF6"
    d="M84.922 107.991s-2.864 2.79-1.44 6.075c1.423 3.286 6.968 7.066 10.857 8.288 3.89 1.222 7.349 1.271 9.649 5.003 2.284 3.731 1.523 7.726 1.109 9.262-.414 1.535 7.779-2.593 8.292-5.994.513-3.401.166-6.504 1.043-5.927.877.578 8.954 1.635 9.914-2.971.943-4.607 2.929-10.633-3.972-14.645-6.902-4.011-35.452.909-35.452.909Z" />
  <path fill="#90A5C8"
    d="M84.922 107.991s28.55-4.904 35.452-.892c1.026.594 1.853 1.238 2.532 1.932a1.758 1.758 0 0 0-.513.346c-.844.76-.894 2.081-1.258 3.071-.298.826-.728 1.602-1.142 2.361-.298.545-.546 1.123-.91 1.635-.662.908-2.053 1.75-2.913.61-.315-.412-.497-.924-.811-1.337-.298-.396-.712-.644-1.175-.809-1.06-.363-2.284-.314-3.36-.066-.497.116-1.059.281-1.391.71-.446.578-.546 1.436-.562 2.146-.017.661.165 1.255.314 1.882.182.793.331 1.585.414 2.394.116 1.09.116 2.18.017 3.269-.762-1.75-1.523-4.226-3.609-4.54-.082-.016-.165.215-.182.248-.264.677-.43 1.519-.248 2.245.133.578.497 1.073.828 1.569.662 1.007.844 2.113.662 3.301-.166 1.123-.497 2.262-.844 3.335a25.205 25.205 0 0 1-.662 1.866c.016-1.75-.331-3.847-1.573-5.877-2.284-3.732-5.76-3.765-9.649-5.003-3.89-1.222-9.45-5.002-10.857-8.288-1.407-3.318 1.44-6.108 1.44-6.108Z" />
  <path fill="#7087B2"
    d="M100.033 123.427c-1.026-.677-2.152-1.173-3.294-1.618-1.175-.463-2.367-.908-3.476-1.536-1.026-.561-1.986-1.304-2.598-2.311-.017-.033-.017-.248.033-.264 1.192-.314 2.433-.33 3.658-.38 1.109-.033 2.25-.083 3.343-.33 1.142-.248 2.152-.809 3.161-1.354 1.043-.561 2.086-1.123 3.277-1.271 1.192-.149 2.384-.017 3.575-.066-.149-.264-.281-.529-.529-.71-.033-.033-.017-.281.033-.281 1.175.281 2.4.314 3.591.314 1.093 0 2.185-.066 3.277-.116a20.857 20.857 0 0 0 3.377-.446c1.075-.231 2.135-.544 3.128-1.04.248-.115.496-.247.745-.379.215-.826.397-1.717 1.026-2.279.165-.148.331-.264.513-.346-.662-.677-1.49-1.321-2.533-1.932-6.885-4.012-35.451.891-35.451.891s-2.864 2.791-1.44 6.076c1.407 3.286 6.968 7.066 10.857 8.288 2.847.908 5.478 1.172 7.564 2.708a8.648 8.648 0 0 0-1.837-1.618Z" />
  <path fill="#9CCAF6"
    d="M115.574 92.999s11.453 10.649 6.405 17.715c0 0-.662 1.849-3.608.99-2.946-.858-6.604-2.427-8.772-2.905-2.168-.479-3.095-.793-4.419.049-1.307.826-3.343 4.606-7.696 5.977-4.353 1.37-19 1.271-23.783-6.373-4.784-7.644 3.64-13.835 3.906-13.901.264-.066 15.723-1.866 15.723-1.866s5.56-4.573 22.244.314Z" />
  <path fill="#90A5C8"
    d="M77.606 94.552c.265-.066 15.724-1.866 15.724-1.866s5.544-4.573 22.244.297c0 0 2.135 1.982 4.154 4.805-1.92-.594-4.154-.38-5.743.858-.794.611-1.456 1.371-2.317 1.899-1.059.677-2.251 1.073-3.476 1.337-2.698.595-5.428.479-8.143.215-2.83-.281-5.627-.594-8.474-.396-1.539.115-3.41.033-4.286 1.552-.58 1.007-.795 2.311-.762 3.467.017.924.298 1.799.944 2.476.728.776 1.688 1.403 2.664 1.8 1.076.429 2.235.528 3.393.66 2.466.248 4.883.842 7.299 1.42-.927.693-2.019 1.321-3.326 1.733-4.353 1.371-19 1.272-23.784-6.372-4.8-7.628 3.625-13.82 3.89-13.885Z" />
  <path fill="#7087B2"
    d="M115.574 93c-16.683-4.888-22.244-.298-22.244-.298s-15.459 1.783-15.723 1.866c-.265.066-8.69 6.257-3.906 13.901 2.383 3.814 7.249 5.745 12.049 6.554-.844-.445-1.656-.957-2.384-1.568-1.142-.958-1.986-2.196-2.383-3.632 0-.017.016-.264.033-.248.679.413 1.307.908 2.069 1.172.463-1.287.695-2.658 1.192-3.929.43-1.139 1.125-2.146 2.135-2.856.231-.165.48-.297.728-.429.05-.083.083-.182.132-.265.877-1.518 2.748-1.436 4.287-1.551 2.847-.199 5.644.115 8.474.396 2.731.264 5.462.379 8.143-.215 1.225-.264 2.416-.677 3.475-1.337.845-.545 1.523-1.288 2.318-1.899 1.588-1.238 3.823-1.436 5.743-.858-2.003-2.823-4.138-4.805-4.138-4.805Z" />
  <path fill="#FE7C44"
    d="M31.28 153.887s-.463.331-1.456.826c4.585-1.37 8.326-2.724 8.326-2.724-19.861-1.222-29.378-9.081-29.378-9.081 6.935.479 10.36-.726 10.36-.726-10.94.281-17.924-2.394-18.139-2.476 2.73 3.186 11.437 11.408 30.288 14.181Z" />
  <path fill="#F6BF74"
    d="M22.99 151.725a39.89 39.89 0 0 1-1.904-.892c-.613-.314-1.241-.627-1.804-1.023-.844-.595-1.606-1.321-2.334-2.031-.248-.248-.513-.479-.761-.727-4.966-2.146-7.398-4.144-7.398-4.144 6.934.479 10.36-.726 10.36-.726-10.94.281-17.924-2.394-18.14-2.476 2.434 2.839 9.617 9.691 24.512 13.108-.86-.379-1.688-.726-2.532-1.089Z" />
  <path fill="#F36C38"
    d="m0 138.402.1.149c.132.198.43.594.893 1.139.215.083 7.2 2.757 18.14 2.477 0 0-3.426 1.221-10.361.726 0 0 9.517 7.859 29.378 9.08 0 0-3.758 1.371-8.326 2.725-2.151 1.073-6.819 3.004-14.895 4.424 0 0 .033.017.082.033h.017c1.837.594 31.463 9.543 48.61-19.019 0 0 .397-.396 0-1.403a3.748 3.748 0 0 0-.398-.76c-.976-1.568-14.399-11.194-10.724-16.262 0 0 15.26-1.701 19.496-7.958 4.237-6.257 11.619-11.54 6.57-23.592-5.047-12.069-14.497-1.569-14.497-1.569s-44.903 7.727-51.556 31.98c0 0 .281 3.005 4.767 6.422a24.89 24.89 0 0 0 2.019 1.37s-4.32 5.482-16.518 2.147c0 0 .612 3.434 10.61 6.372 0 0-1.788.793-4.503 1.354-.082.017-.182.033-.265.05a9.559 9.559 0 0 1-.28.049c-.05.017-.084.017-.133.033-.447.083-.927.149-1.407.215-.116.016-.232.033-.364.049-.232.033-.48.05-.712.083-1.787.116-3.74.083-5.743-.314Z" />
  <path fill="#FE7C44"
    d="M48.593 154.63a10.9 10.9 0 0 0-1.06.165c-.264.066-.529.132-.794.165-.182.017-.397.033-.562-.082-.182-.116-.282-.314-.364-.512-.216-.512-.249-1.057-.166-1.601.066-.446.199-.875.38-1.305-4.882-3.137-9.665-6.439-14.382-9.807-1.307-.924-2.582-1.915-3.956-2.74-1.373-.826-2.83-1.552-4.286-2.212-2.83-1.288-5.776-2.378-8.49-3.897a15.281 15.281 0 0 1-2.103-1.436c-2.482.363-5.76.264-9.996-.892 0 0 .612 3.434 10.609 6.373 0 0-1.788.793-4.502 1.354l-.265.049c-.083.017-.182.033-.281.05-.05.016-.083.016-.133.033-.447.083-.927.149-1.406.215-.116.016-.232.033-.365.049-.231.033-.48.05-.711.083-1.788.148-3.757.115-5.743-.281l.099.149c.132.198.43.594.894 1.139.215.082 7.2 2.757 18.14 2.476 0 0-3.427 1.222-10.361.727 0 0 9.516 7.858 29.377 9.08 0 0-3.757 1.37-8.325 2.724-2.152 1.073-6.819 3.005-14.896 4.425 0 0 .034.016.083.033h.017c1.373.479 19.198 5.861 35.17-4.656-.546.05-1.076.083-1.622.132Z" />
  <path fill="#F6BF74"
    d="M41.178 158.675a47.53 47.53 0 0 1-5.528.644c-1.87.099-3.724.033-5.577-.149-1.854-.181-3.691-.412-5.561-.479-.034 0-.017-.264.033-.28 1.473-.578 2.995-1.024 4.518-1.453 2.797-.776 5.644-1.469 8.325-2.658 2.35-1.04 4.485-2.493 6.041-4.54-3.989-2.625-7.911-5.35-11.8-8.123-1.308-.925-2.582-1.915-3.956-2.741-1.374-.825-2.83-1.552-4.287-2.212-2.83-1.288-5.776-2.378-8.49-3.896a15.2 15.2 0 0 1-2.102-1.437c-2.483.363-5.76.264-9.997-.891 0 0 .612 3.434 10.61 6.373 0 0-1.788.792-4.503 1.353-.082.017-.182.033-.265.05a9.559 9.559 0 0 1-.28.049c-.05.017-.084.017-.133.033-.447.083-.927.149-1.407.215-.116.017-.232.033-.364.05-.232.033-.48.049-.712.082-1.787.149-3.757.116-5.743-.281l.1.149c.132.198.43.594.893 1.139.215.083 7.2 2.757 18.14 2.477 0 0-3.426 1.221-10.361.726 0 0 9.517 7.859 29.378 9.08 0 0-3.758 1.371-8.326 2.725-2.151 1.073-6.819 3.004-14.895 4.424 0 0 .033.017.082.033h.017c1.192.38 13.82 4.194 27.26-.677a9.46 9.46 0 0 1-1.11.215Z" />
  <path fill="#B44F29"
    d="M63.605 138.765a3.764 3.764 0 0 0-.398-.76c-.794-1.287-9.914-7.941-11.205-13.109-1.059.017-2.118.067-3.177.199-1.34.165-2.665.445-3.973.776-.612.165-1.224.346-1.803.61-.563.265-1.06.611-1.556.991-.248.182-.48.38-.662.627-.216.265-.348.562-.464.875-.066.166-.116.347-.165.512l-.199-.049-.43 1.717s.53-.496 2.069-.611c.778.132 1.589.198 2.366.297.547.066 1.093.149 1.606.297.596.165 1.192.446 1.754.694 2.599 1.089 5.694 2.542 7.05 5.151 1.242 2.41 1.126 5.398.646 7.99-.48 2.625-1.373 5.383-3.062 7.496a15.124 15.124 0 0 1-2.78 2.658c5.164-3.17 10.162-7.941 14.4-14.991-.017.017.363-.363-.017-1.37Z" />
  <path fill="#903A1E"
    d="M78.55 90.192c-5.048-12.068-14.499-1.568-14.499-1.568s-6.554 1.123-15.028 3.863c4.37.743 8.574 3.104 11.056 6.703 1.49 2.163 2.168 4.739 1.986 7.347-.231 3.071-1.357 6.142-3.442 8.453-1.904 2.113-4.469 3.418-7.084 4.458-2.201.858-4.518 1.436-6.62 2.542-2.02 1.057-4.055 2.46-5.412 4.309-.282.397-.546.826-.728 1.288 0 0-.034.116-.05.149v.049-.033c-.017-.099 0 .017 0 .066-.033.397-.1 2.097.827 3.335l.43-1.337c.017-.033.05-.083.05-.132.116-.33.199-.677.331-1.007a2.74 2.74 0 0 1 .48-.859c.215-.264.48-.495.762-.693.496-.363.993-.71 1.555-.974.613-.264 1.242-.446 1.887-.611a30.992 30.992 0 0 1 4.072-.776c.943-.116 1.887-.149 2.846-.165-.215-1.04-.082-2.031.547-2.873 0 0 15.26-1.7 19.496-7.958 4.204-6.24 11.586-11.507 6.538-23.576Z" />
  <path fill="#260E07"
    d="M39.54 131.17s.86-2.674 3.045-3.467c0 0 13.787 5.96 18.67 9.213a23.566 23.566 0 0 1 2.35 1.832 3.764 3.764 0 0 0-.398-.759c-.976-1.568-14.233-11.21-10.575-16.279.016.017-12.215-.858-13.092 9.46ZM.1 138.551c.132.198.43.594.893 1.139.215.083 7.2 2.757 18.14 2.477 0 0-3.426 1.221-10.361.726 0 0 9.517 7.859 29.378 9.08 0 0-3.758 1.371-8.325 2.724-2.152 1.074-6.82 3.005-14.896 4.425 0 0 .033.017.083.033h.016c5.81.71 15.111-.082 28.898-6.274 0 0 6.388-2.674 7-7.413 0 0 1.755-1.898-2.267-3.07-4.022-1.156-24.478-10.038-29.311-14.067 0 0-4.32 5.482-16.518 2.147 0 0 4.37 3.797 16.683 4.309 0 0-4.8 2.328-10.559 3.417-.083.017-.182.033-.265.05a9.564 9.564 0 0 1-.281.049c-.05.017-.083.017-.133.033-.463.083-.943.149-1.406.215-.116.016-.232.033-.364.049-.232.033-.48.05-.712.083-1.937.182-3.857.182-5.694-.132Z" />
  <path fill="#FE8354"
    d="M37.338 112.828c-1.075-1.205-1.72-2.872-1.522-4.49.099-.776.347-1.536.53-2.312.115-.478.165-.924.132-1.419-.033-.479-.083-.958-.116-1.437-.05-.875.05-1.717.397-2.526.298-.677.778-1.255 1.308-1.766.629-.611 1.357-1.123 2.035-1.684l-.066-.165s-27.938 12.712-23.519 23.856c0 0 1.143-7.099 6.306-8.42 0 0-6.322 7.776 4.601 13.505 0 0-3.74-6.769.811-10.335 0 0 2.516 5.894 12.314-.957-1.224-.281-2.35-.892-3.21-1.85Z" />
  <path fill="#FEC9AA"
    d="M29.18 109.542c-.63.199-1.259.281-1.871.033-.397-.148-.679-.412-.662-.858.016-.413.198-.776.397-1.123-.447.281-.894.545-1.324.826-.811.528-1.705.924-2.516 1.469-.413.281-.81.578-1.191.892-.365.28-.745.561-1.093.858a8.128 8.128 0 0 0-.927.925c-.264.313-.463.66-.695.99-.165.396-.33.793-.48 1.205-.149.397-.281.809-.397 1.222.96-1.535 2.367-2.955 4.403-3.467 0 0-3.956 4.854-.216 9.724a13.166 13.166 0 0 1 .1-3.78c.281-1.602 1.01-3.137 2.019-4.408.976-1.239 2.317-2.081 3.625-2.906.711-.446 1.522-.842 2.118-1.453.083-.083.149-.165.215-.248.066-.082.116-.181.182-.264.033-.066.083-.132.116-.198-.612.05-1.192.363-1.804.561Z" />
  <path fill="#BADBFA"
    d="M122.84 106.373s-1.142 2.114-3.774 3.088l-.43-1.849-.248 1.865s-1.06.644-2.317.396l-.034-1.188-.529 1.271s-.795-.281-1.275-1.007l1.275-.991-1.573.71s-1.075-.644-1.737-1.486c-.646-.825-3.128-3.236-4.966-3.153 0 0 2.615.149 6.654 2.889 0 0 3.211 1.09 7.15-.809" />
  <path fill="#F36C38"
    d="M129.079 68.137s-2.267 19.432-20.175 25.887c0 0-25.77 7.892-49.272-1.27 0 0 .033 1.419-4.8 1.551 0 0 1.225-1.337.48-2.724 0 0-2.151 1.04-8.407-2.427.281.083 1.903.462 3.029-2.295 0 0-3.658-.231-9.616-4.64a2.371 2.371 0 0 1-.249-.18s.646-4.524-1.423-7.15c-1.738-2.179-8.143-10.516-4.518-27.918l.016-.016a44.12 44.12 0 0 1 .53-2.262c.149-.61.314-1.238.48-1.865.132-.463.264-.925.413-1.387.083-.314.183-.628.282-.941.116-.397.248-.81.397-1.206a72.366 72.366 0 0 1 1.423-3.945s8.623-13.836 30.42-20.72c0 0 5.843-6.026 23.205-3.698 0 0-.298.082-.679.23a4.516 4.516 0 0 0-.513.232c-.083.05-.182.082-.281.148-.083.05-.182.1-.281.165a1.52 1.52 0 0 0-.133.083c-.083.05-.165.116-.248.182-.166.132-.315.28-.43.429-.067.066-.116.165-.166.248a1.693 1.693 0 0 0-.265.858s6.587 1.85 9.037.726c0 0 .1.017.298.034 1.241.115 6.074.429 8.226-1.387l-4.022 3.615s1.224.842 3.078.545c0 0 2.152 2.807 5.032 3.302 0 0 5.511 2.972 11.734 10.368 0-.016 10.228 18.079 7.398 37.428Z" />
  <path fill="#FE7C44"
    d="M97.352 14.215c-2.45 1.123-9.037-.726-9.037-.726 0-.314.1-.595.265-.859.05-.083.099-.165.165-.248.116-.165.265-.313.43-.429.083-.066.15-.132.249-.182a.36.36 0 0 1 .132-.082c.083-.066.182-.116.282-.165.099-.05.182-.1.28-.149.183-.099.365-.165.514-.23.397-.166.679-.232.679-.232-17.362-2.328-23.205 3.698-23.205 3.698-21.797 6.885-30.42 20.72-30.42 20.72a72.454 72.454 0 0 0-1.423 3.946c-.15.413-.265.809-.397 1.205-.1.314-.199.627-.282.941-.149.479-.281.941-.414 1.387-.165.627-.33 1.255-.48 1.865-.198.777-.364 1.536-.53 2.262l-.016.017c-3.624 17.401 2.78 25.739 4.519 27.918.265.33.48.677.645 1.057-.33-2.08-1.423-3.996-1.572-6.126 0-.066.05-.842.165-.726 1.225 1.37 1.34 3.401 2.35 4.887-.579-2.146-1.175-4.293-1.539-6.489-.43-2.492-.678-5.233.182-7.676.083-.232.15.28.15.313.032 1.271.595 2.394 1.24 3.517.017-1.486.133-2.922.299-4.293-.96-1.618-1.87-3.252-2.102-5.184-.447-3.698.877-7.396 1.142-11.062 0-.049.116-.676.182-.429.198.842.546 1.618.877 2.427 0-.297-.017-.594-.017-.891.017-1.602.1-3.583 1.159-4.887.066-.083.116.214.116.23.083 1.784.165 3.584.579 5.334.248 1.056.58 2.096.91 3.136.033-.082.066-.148.066-.148 10.08-23.13 22.31-21.76 26.366-24.699 4.038-2.939 13.621-5.63 13.621-5.63 6.207-.198 11.486-2.08 14.217-3.269-.248-.033-.347-.05-.347-.05Z" />
  <path fill="#F6BF74"
    d="M33.333 58.758c.331-2.41.199-4.887.745-7.264.563-2.493 1.506-4.854 2.4-7.248 1.672-4.458 4.237-8.503 7.282-12.151.066-.083.083.743.066.842-.53 2.047-.645 4.177-.496 6.29 1.87-4.127 4.038-8.189 7-11.656 5.132-6.01 12.315-9.939 19.597-12.779 4.005-1.568 8.044-2.823 12.33-3.236 2.516-.247 5.065-.23 7.58-.016.1-.05.183-.1.265-.132.182-.1.364-.165.513-.231.398-.165.679-.231.679-.231-17.362-2.328-23.204 3.698-23.204 3.698-21.798 6.884-30.42 20.72-30.42 20.72a72.4 72.4 0 0 0-1.424 3.946c-.149.412-.265.808-.397 1.205-.1.313-.199.627-.281.94-.15.48-.282.942-.414 1.388-.166.627-.331 1.254-.48 1.865-.199.776-.364 1.536-.53 2.262l-.016.017c-1.06 5.101-1.258 9.41-.977 13.026.066-.43.116-.842.182-1.255Z" />
  <path fill="#DA5F31"
    d="M55.511 84.925c2.748-.115 2.78-3.665.464-4.507-4.486-1.618-9.947-2.51-13.522-5.91-1.01-.958-1.854-2.048-2.566-3.203.86.643 1.738 1.27 2.582 1.931 1.655 1.288 3.691.297 3.856-1.75.282-3.533-.364-7.347.762-10.748 1.01-3.021 2.979-5.035 5.28-7.148 3.608-3.303 10.642-8.57 7.58-14.232-1.357-2.51-4.039-4.012-6.505-5.283-2.73-1.403-5.031-2.708-7.2-4.937-.48-.478-.943-.974-1.406-1.485 3.658-3.22 8.805-6.885 15.69-9.972-.53.462-1.043.974-1.54 1.502-2.018 2.163 1.325 5.283 3.344 3.12a18.981 18.981 0 0 1 3.21-2.74c3.642 1.552 7.581 2.542 11.487 3.186 4.038 7 13.141 10.781 20.771 11.92 4.817.727 10.014.842 14.764-.346 3.326-.826 5.726-2.625 8.093-4.64.347.396.695.793 1.043 1.206 0 0 10.228 18.094 7.398 37.444 0 0-2.268 19.432-20.176 25.887 0 0-25.77 7.892-49.271-1.271 0 0 .033 1.42-4.783 1.552 0 0 1.224-1.338.48-2.724 0 0-2.152 1.023-8.458-2.46 0 0 1.837.743 3.079-2.279 0 0-3.575-.23-9.418-4.474 4.767 1.684 9.682 2.576 14.962 2.361Z" />
  <path fill="#DA5F31"
    d="M111.171 29.767c-4.104.891-8.689.94-12.826.181-5.115-.925-10.94-2.873-14.863-6.604 5.826.512 11.768.446 17.461-.94 2.019-.496 2.019-3.253.414-4.194-1.606-.941-2.681-2.84-4.65-3.005-2.699-.231-5.38-.198-8.078.016-1.903.149-3.806.347-5.71.529.1-.05.199-.1.298-.165 2.152-1.19.811-4.111-1.29-4.227-2.682-.132-5.314-.083-7.862.264 3.657-1.073 9.218-1.783 17.246-.71 0 0-2.947.76-2.996 2.576 0 0 6.587 1.849 9.037.726 0 0 6.041.743 8.523-1.37l-4.022 3.632s1.225.842 3.079.528c0 0 2.151 2.807 5.031 3.302 0 0 3.277 1.767 7.614 5.96-1.887 1.585-3.873 2.94-6.406 3.5Z" />
  <path fill="#B44F29"
    d="M121.681 30.691a73.292 73.292 0 0 0-1.043-1.205c-2.366 2.014-4.766 3.814-8.093 4.639-4.75 1.189-9.947 1.073-14.763.347-7.647-1.14-16.75-4.937-20.771-11.92-3.89-.644-7.845-1.618-11.486-3.187a18.978 18.978 0 0 0-3.211 2.74c-2.02 2.164-5.363-.973-3.344-3.12.497-.544 1.01-1.04 1.54-1.502-6.886 3.087-12.033 6.753-15.69 9.972.463.495.926.99 1.406 1.486 2.169 2.212 4.469 3.517 7.2 4.936 2.466 1.272 5.13 2.758 6.504 5.283 2.036 3.765-.38 7.347-3.293 10.286.082.644.149 1.288.215 1.948.414 3.864.794 7.793 2.135 11.475.695 1.915 1.672 3.648 2.93 5.15a118.83 118.83 0 0 1 3.492-.71c5.809-1.089 11.784-1.947 17.692-1.815 4.055.082 8.292.61 11.437 3.4 3.095 2.741 3.873 7.447 3.294 11.343-.563 3.764-2.98 7.149-5.595 9.79-2.88 2.906-6.438 5.316-10.261 7.132 15.011.545 26.928-3.103 26.928-3.103 17.908-6.44 20.175-25.888 20.175-25.888 2.831-19.382-7.398-37.477-7.398-37.477Z" />
  <path fill="url(#a)"
    d="M41.36 73.122a17.773 17.773 0 0 1-1.49-2.03 90.73 90.73 0 0 1 2.4 1.799c-.297.066-.612.148-.91.23Z"
    opacity=".5" />
  <path fill="#903A1E"
    d="M121.582 37.856c-1.523 1.865-3.178 3.582-4.154 5.828-1.788 4.11-1.473 9.179-2.169 13.554-1.324 8.404-3.608 16.956-8.97 23.675-4.336-5.415-7.53-12.267-8.755-18.953-1.275-6.934-3.99-13.274-10.13-17.22-6.52-4.21-14.763-5.745-22.078-8.04-6.918-2.163-14.929-4.095-19.282-10.286 3.559-2.955 8.309-6.174 14.466-8.915-.53.462-1.043.974-1.54 1.502-2.019 2.163 1.324 5.284 3.344 3.12a18.979 18.979 0 0 1 3.21-2.74c3.642 1.552 7.58 2.543 11.487 3.186 4.038 7 13.141 10.781 20.77 11.92 4.817.727 10.014.843 14.764-.346 3.327-.826 5.727-2.625 8.093-4.64.348.397.696.793 1.043 1.206 0 0 .546.974 1.357 2.691-.082 1.618-.43 3.203-1.456 4.458Z" />
  <path fill="#9CCAF6"
    d="M105.445 57.85c1.572 11.705 7.944 20.522 14.233 19.68 6.306-.842 10.13-11.012 8.574-22.718-1.573-11.705-7.945-20.521-14.234-19.68-6.289.843-10.129 11.013-8.573 22.718Z" />
  <path fill="#607386"
    d="M114.018 35.148c2.532-.33 5.081.892 7.332 3.253-.016.033-.05.05-.066.066-4.105 5.283-6.902 11.26-8.044 17.863-.894 5.184-2.069 10.484-2.648 15.8-2.483-3.55-4.386-8.568-5.147-14.264-1.556-11.722 2.284-21.892 8.573-22.718Z" />
  <path fill="#fff"
    d="M105.71 57.85c1.456 10.847 7.332 19.003 13.141 18.227 5.809-.776 9.351-10.186 7.895-21.033-1.457-10.847-7.332-19.003-13.142-18.227-5.809.76-9.334 10.186-7.894 21.033Z" />
  <path fill="#fff"
    d="M105.693 57.503c1.457 10.847 7.332 19.003 13.141 18.227 5.81-.776 9.352-10.187 7.895-21.033-1.456-10.847-7.332-19.003-13.141-18.227-5.809.776-9.335 10.186-7.895 21.033Z" />
  <path fill="#260E07"
    d="M105.743 58.064c1.473 10.963 7.365 19.218 13.174 18.442 5.81-.776 9.335-10.286 7.862-21.248-1.473-10.963-7.365-19.218-13.175-18.442-5.809.76-9.318 10.286-7.861 21.248Z" />
  <path fill="#fff"
    d="M105.71 57.85c1.456 10.847 7.332 19.003 13.141 18.227 5.809-.776 9.351-10.186 7.895-21.033-1.457-10.847-7.332-19.003-13.142-18.227-5.809.76-9.334 10.186-7.894 21.033Z" />
  <path fill="#BFB3C1"
    d="M113.604 36.816c4.75-.628 9.55 4.721 11.934 12.63-5.611 1.485-8.425 8.552-9.616 13.736-.927 4.061-.778 8.222.595 12.167.067.215.166.43.232.628-5.064-1.123-9.781-8.585-11.056-18.128-1.423-10.847 2.102-20.274 7.911-21.033Z" />
  <path fill="#F36C38"
    d="M115.458 44.212c-3.807 1.14-7.1 3.352-9.947 6.092.612-7.363 3.707-12.91 8.11-13.505 3.509-.462 7.051 2.328 9.616 7.017-2.731-.413-5.495-.28-7.779.396Z" />
  <path fill="#F6BF74"
    d="M111.072 38.038c1.556-.181 3.128-.181 4.502.694 1.142.726 1.97 1.832 2.748 2.906.48.643.91 1.304 1.29 1.98 1.192-.032 2.417.017 3.625.215-2.565-4.672-6.107-7.479-9.616-7.016-1.092.148-2.102.594-3.012 1.304.149-.033.298-.066.463-.083Z" />
  <path fill="#F7E597"
    d="M117.527 39.028c1.638 1.14 3.012 2.807 3.873 4.606.596.033 1.208.1 1.82.182-2.565-4.672-6.107-7.479-9.616-7.017-.96.132-1.837.496-2.664 1.073 2.267-.363 4.667-.181 6.587 1.156Z" />
  <path fill="#807782"
    d="M113.025 45.534c-.728.247-1.44.495-2.118.875-.795.446-1.606.891-2.384 1.37-1.059.66-2.184 1.486-3.012 2.51a35.402 35.402 0 0 0 .199 7.561c.96 7.165 3.856 13.158 7.398 16.18-1.92-6.324-2.781-12.911-2.963-19.614-.066-2.691.265-7.165 2.88-8.882Z" />
  <path fill="#953D1F"
    d="M111.718 43.107c-.58-1.915-.464-3.78-.1-5.647-3.36 1.767-5.627 6.753-6.124 13.01a5.38 5.38 0 0 1 .414-.446.27.27 0 0 1 .05-.099c.331-.214.629-.478.91-.76.232-.23.464-.445.695-.676.232-.231.447-.462.695-.66.149-.116.331-.232.53-.298.083-.066.149-.132.232-.198.794-.561 1.605-1.073 2.482-1.47.414-.18.811-.379 1.192-.61.116-.066.232-.132.331-.198-.53-.561-1.076-1.189-1.307-1.948Z" />
  <path fill="#9CCAF6"
    d="M48.544 58.71c1.87 13.983 14.134 23.905 27.39 22.139 13.258-1.767 22.477-14.529 20.607-28.53-1.87-13.983-14.135-23.905-27.392-22.139-13.24 1.767-22.476 14.545-20.605 28.53Z" />
  <path fill="#607386"
    d="M95.845 55.06c-2.714-4.986-7.894-7.958-12.562-10.93-.513-.33-1.042-.644-1.555-.974a53.036 53.036 0 0 0-2.4-1.519c-2.532-1.535-5.098-2.84-7.78-3.83-4.104-1.8-8.357-2.79-12.71-3.566 2.88-1.866 6.14-3.55 9.715-4.028 13.555-1.8 26.3 7.528 28.02 22.7.166 1.437.266 2.857.232 4.244-.265-.71-.579-1.404-.96-2.097Z" />
  <path fill="#fff"
    d="M55.197 56.397c1.54 11.54 10.807 19.812 20.688 18.507 9.881-1.32 16.65-11.722 15.094-23.262-1.539-11.54-10.807-19.812-20.688-18.507-9.88 1.32-16.65 11.738-15.094 23.262Z" />
  <path fill="#260E07"
    d="M54.916 56.826c1.572 11.739 10.923 20.192 20.903 18.871 9.98-1.32 16.783-11.92 15.21-23.675-1.572-11.739-10.923-20.191-20.903-18.87-9.98 1.337-16.783 11.936-15.21 23.674Z" />
  <path fill="#fff"
    d="M55.197 56.397c1.54 11.54 10.807 19.812 20.688 18.507 9.881-1.32 16.65-11.722 15.094-23.262-1.539-11.54-10.807-19.812-20.688-18.507-9.88 1.32-16.65 11.738-15.094 23.262Z" />
  <path fill="#BFB3C1"
    d="M70.291 33.135c8.027-1.073 15.64 4.193 19.05 12.399-9.384-.512-16.584 7.875-17.544 17.055-.48 4.507.778 8.684 2.98 12.415-9.451.578-18.09-7.512-19.58-18.607C53.64 44.873 60.41 34.456 70.29 33.135Z" />
  <path fill="#F36C38"
    d="M70.887 40.069c-4.618-.116-8.954 1.106-13.307 2.377 2.665-5.019 7.2-8.585 12.711-9.311 7.895-1.057 15.392 4.028 18.868 11.986-.066-.033-.149-.083-.232-.116-5.28-3.351-12.297-4.788-18.04-4.936Z" />
  <path fill="#F6BF74"
    d="M68.024 35.463c.546-1.024 1.373-1.734 2.3-2.328h-.016c-5.512.726-10.047 4.31-12.711 9.312 3.227-.958 6.438-1.866 9.765-2.23-.15-1.634-.116-3.318.662-4.754Z" />
  <path fill="#F7E597"
    d="M65.872 35.595c.612-.644 1.291-1.321 2.036-1.932-4.436 1.32-8.06 4.54-10.328 8.8 1.605-.479 3.194-.941 4.816-1.321.63-2.097 2.02-3.979 3.476-5.547Z" />
  <path stroke="#1B1A35" stroke-miterlimit="10" stroke-width=".964"
    d="M89.159 45.138c-.066-.033-.15-.083-.232-.116-5.296-3.368-12.314-4.804-18.057-4.936-4.617-.116-8.954 1.106-13.307 2.377" />
  <path fill="#953D1F"
    d="M64.416 35.842c-.249-.066-.497-.148-.729-.215a16.028 16.028 0 0 1 6.62-2.492c7.978-1.057 15.542 4.127 18.984 12.233-.099-.05-.182-.115-.28-.165a26.813 26.813 0 0 0-8.127-5.762c-3.41-1.568-7.812-3.55-11.9-3.566-1.54-.181-3.062-.165-4.568-.033Z" />
  <path fill="#260E07"
    d="M59.318 59.848c2.052 8.255 8.822 13.62 15.127 11.987 6.306-1.635 9.749-9.659 7.713-17.914-2.052-8.255-8.822-13.62-15.127-11.986-6.306 1.635-9.749 9.658-7.713 17.913Z" />
  <path fill="url(#b)"
    d="M67.03 41.934c5.264-1.37 10.841 2.146 13.738 8.139-6.604 1.073-13.34 3.351-14.366 11.012-.596 4.392 1.29 8.47 4.882 10.995-5.263-.478-10.261-5.349-11.966-12.233-2.036-8.255 1.407-16.279 7.713-17.913Z"
    opacity=".7" />
  <path fill="#fff"
    d="M77.474 49.233c-1.076 1.32-.894 3.236.414 4.26 1.29 1.023 3.21.775 4.287-.545 1.075-1.321.893-3.22-.414-4.26-1.308-1.024-3.211-.792-4.287.545Z" />
  <path fill="#260E07"
    d="M108.225 64.14c1.457 6.752 5.926 10.797 9.98 9.014 4.055-1.783 6.157-8.7 4.684-15.453-1.456-6.752-5.925-10.797-9.98-9.014-4.038 1.766-6.14 8.684-4.684 15.453Z" />
  <path fill="url(#c)"
    d="M112.926 48.67c3.624-1.584 7.58 1.47 9.417 6.968-6.653 1.436-11.503 9.757-8.54 17.285-2.483-1.287-4.634-4.49-5.561-8.8-1.473-6.752.629-13.67 4.684-15.453Z"
    opacity=".7" />
  <path fill="#FFCE00"
    d="M48.428 25.028c-3.261-2.196-1.523-4.623-1.523-4.623-3.492-3.005-2.086-6.24-2.086-6.24C39.358 9.078 39.44 2.557 39.44 2.557c.15-3.236 9.534 4.705 9.534 4.705 26.779 16.213 53.078 15.784 53.078 15.784 9.252-2.097 18.818-13.274 21.83-14.71 2.996-1.437.679 8.172.679 8.172s1.208 1.519.083 4.375c0 0-.613 4.689-5.81 11.408 0 0-12.827 1.073-13.439 16.394l.828 13.423-3.443 1.585s-7.067-32.161-34.094-33.598c0 0-9.285 2.295-20.259-5.068Z" />
  <path fill="#F59B1A"
    d="M42.817 11.176c-1.324-2.873-2.334-5.943-2.516-9.13 0-.05 0-.148.017-.264-.513-.033-.844.182-.86.776 0 0-.067 5.58 4.253 10.45a46.654 46.654 0 0 1-.894-1.832ZM123.899 8.338c-.298.133-.662.397-1.076.694-.281.858-.596 1.684-.91 2.51-.133 2.278-.894 4.49-1.903 6.537a28.753 28.753 0 0 1-1.672 2.939c.033.248.033.793-.066.875l-1.242.99c-.165.232-.331.463-.513.678 1.821-.463 3.509-1.338 5.048-2.46.133-.1.083.759.067.842-.48 1.8-2.136 2.905-3.377 4.16-1.324 1.354-2.549 2.79-4.121 3.863-1.572 1.073-3.36 1.816-4.998 2.79-1.54.925-3.013 2.015-4.088 3.484-1.275 1.75-1.573 3.863-2.202 5.878 0 .016-.066.214-.115.132-.398-.694-1.027-1.206-1.705-1.651.083.528.165 1.073.215 1.568.099 1.172.066 2.344-.331 3.45 0 .034-.033.05-.05.067-.794-.314-1.142-1.338-1.555-2.014-.63-1.024-1.242-2.08-1.672-3.22-.281-.726-.463-1.486-.645-2.229a38.292 38.292 0 0 0-3.427-1.882c-1.357-.644-2.78-1.122-4.203-1.618-2.615-.891-5.23-1.8-7.879-2.625-2.45-.76-4.932-1.535-7.464-1.931-4.568-.71-9.202-.545-13.787-1.123-4.402-.562-8.656-1.948-11.916-5.052-.646-.611-1.258-1.255-1.887-1.899.033.859.463 1.915 1.97 2.939 10.973 7.363 20.258 5.052 20.258 5.052 27.027 1.436 34.094 33.597 34.094 33.597l3.443-1.585-.778-13.406c.612-15.32 13.439-16.394 13.439-16.394 5.197-6.72 5.809-11.408 5.809-11.408 1.126-2.856-.082-4.375-.082-4.375s2.317-9.609-.679-8.172Z" />
  <path fill="#CEA806"
    d="M44.836 14.165a16.805 16.805 0 0 1-3.31-4.259c2.3 2.36 5.362 4.21 8.507 5.828-.794.71-1.109 1.981-.447 2.939.828 1.221 1.87 2.097 3.062 2.773-1.076.974-1.175 2.923.38 3.715 3.162 1.634 6.505 1.948 9.998 2.229 3.905.314 7.811.644 11.668 1.32 6.587 1.156 13.456 3.237 18.652 7.628 2.698 2.262 4.8 4.87 5.959 8.239 1.175 3.434 1.82 7.016 3.012 10.434.877 2.51 1.175 5.365 1.887 8.024l-1.407.643s-7.067-32.16-34.095-33.597c0 0-9.285 2.295-20.258-5.052-3.26-2.196-1.522-4.623-1.522-4.623-3.51-2.988-2.086-6.24-2.086-6.24Z" />
  <path fill="#F9E48F"
    d="M106.239 40.597c-.927 3.186-2.433 9.262-2.036 14.083 0 0-.43-6.802-1.837-14.166-.447-1.42-.877-2.856-1.307-4.292a31.68 31.68 0 0 0-1.06-2.972c-.264-.66-.744-1.205-.96-1.882-.032-.05-.05-.099-.082-.148-.05-.066-.1-.133-.133-.215 1.225 3.582 2.218 8.04 1.788 12.3 0 0-3.277-8.998-15.21-11.92 0 0 13.522 5.563 18.189 29.569l2.632.495c-.017-.017-1.457-13.967.016-20.852Z" />
  <path fill="#B44F29"
    d="M105.875 12.844s-8.937 10.302-22.293 7.38c0 0 8.258 1.106 16.583-4.722 0 0 3.972-1.189 5.71-2.658Z" />
  <path fill="#FEA97E"
    d="M104.733 13.752s-3.393 1.767-4.568 1.75c0 0-6.57 4.838-13.356 4.557 0 0 9.103-1.602 11.966-4.771-.017.016 4.336-.727 5.958-1.536Z" />
  <path fill="#260E07"
    d="M56.653 42.216c-.016.016-.016.033-.033.05-1.158 2.278-1.804 4.688-2.135 6.983-.33 2.295-.264 4.507 0 6.488l.1.743c.05.248.099.479.148.71.1.462.166.908.298 1.354.133.446.232.875.365 1.288.148.412.28.809.413 1.188.133.38.298.743.447 1.09.066.182.15.347.215.512.083.165.166.313.249.479.165.313.314.61.463.891.166.28.315.528.464.793.28.495.579.924.843 1.287.133.182.249.347.365.512.116.149.231.28.33.396.381.48.596.727.596.727s-.182-.28-.496-.793c-.083-.132-.165-.28-.265-.429a9.768 9.768 0 0 0-.298-.545c-.215-.396-.463-.825-.695-1.353-.116-.265-.248-.529-.38-.81-.116-.297-.232-.594-.365-.908a13.8 13.8 0 0 1-.364-.99c-.116-.347-.248-.71-.347-1.09-.1-.38-.199-.776-.298-1.172-.1-.396-.166-.825-.248-1.238-.1-.413-.133-.875-.2-1.337-.032-.232-.065-.463-.082-.694l-.05-.71a22.191 22.191 0 0 1-.016-2.972c.05-1.023.149-2.08.364-3.136a22.6 22.6 0 0 1 2.218-6.39c.132-.247.265-.495.414-.743 3.31-.644 20.026-3.483 29.443 2.262a24.523 24.523 0 0 1 1.622 3.946c.546 1.816.861 3.583 1.01 5.135.132 1.568.132 2.938.05 4.06a37.488 37.488 0 0 1-.315 2.626l-.182.924s.1-.313.281-.891c.183-.578.414-1.47.63-2.592.181-1.14.347-2.542.33-4.16a23.506 23.506 0 0 0-.662-5.4 25.803 25.803 0 0 0-.926-3.004 26.658 26.658 0 0 0-1.44-3.054c-1.126-2.031-2.648-4.012-4.602-5.68-1.936-1.667-4.27-3.087-6.901-3.847-2.3-.693-4.833-.858-7.25-.495-3.144-.578-11.039-2.905-15.64-12.134 0 0 1.076 7.891 10.84 13.653a17.493 17.493 0 0 0-3.541 2.328l-.447.396c-2.698-.297-7.1-1.601-10.642-6.604 0 0 1.754 5.548 8.904 8.404a20.63 20.63 0 0 0-1.82 2.559c-2.698.347-6.521.248-10.162-1.767.033-.05 2.499 2.956 9.4 3.154Zm3.824-2.378a17.247 17.247 0 0 1 2.267-2.262c1.854-1.551 4.138-2.674 6.488-3.17a14.557 14.557 0 0 1 7.25.215 17.357 17.357 0 0 1 6.272 3.319 20.78 20.78 0 0 1 4.452 5.085c.232.38.463.776.679 1.155-2.251-1.519-9.203-5.448-20.656-5.002-.016-.017-2.697-.017-6.752.66Z" />
  <path fill="#F9E48F"
    d="M123.833 9.245s-.877-.677-3.145 1.717c0 0-12.247 13.522-22.69 13.208 0 0 12.346.627 21.598-8.271 0 0-4.998 8.271-16.087 11.936 0 0 16.401-3.632 20.638-16.642M46.756 5.861S57.514 12.4 66.683 16.295c0 0 17.03 6.637 26.448 7.413 0 0-12.959-.594-19.745-2.542-6.786-1.948.828-.248.828-.248s-8.11-3.748-14.052-5.745c0 0-9.748-7-13.406-9.312Z" />
  <path fill="#B44F29"
    d="m37.14 49.314-.033-1.238.976.594a2.041 2.041 0 0 0-.066-.264c-.066-.38-.116-.743-.149-1.123-.033-.38-.083-.76 0-1.123.066-.38.133-.742.232-1.09.083-.362.198-.71.314-1.056.116-.347.265-.677.398-1.007.165-.33.314-.644.48-.957l-.133 1.056c-.016.347-.066.694-.066 1.057-.017.693-.017 1.387.083 2.047.016.165.066.33.05.495 0 .165-.017.33.016.496.016.33.066.66.132.974.066.313.133.627.249.94.05.15.115.298.165.447.033.066.066.148.1.198.032.066.066.148.082.165l1.407 2.377-2.334-1.42-.463-.28c.05.66.116 1.304.248 1.948.083.528.248 1.04.38 1.568.166.512.315 1.024.547 1.52a18.9 18.9 0 0 0 1.456 2.888c.282.463.596.908.91 1.338.315.429.68.858 1.01 1.205l1.142 1.189-1.622-.017-1.34-.017a16.23 16.23 0 0 0-.066 1.784c0 .198.016.396.033.577.016.1.016.182.033.281l.016.132c0 .05.017.066.033.1.067.23.249.577.48.874.249.28.43.644.646.99.215.348.447.694.695 1.025.463.693.977 1.37 1.473 2.047a22.613 22.613 0 0 1-2.085-1.47c-.331-.264-.662-.544-.994-.825-.314-.297-.662-.578-.877-.974-.248-.38-.513-.743-.678-1.321-.017-.066-.05-.149-.05-.215l-.033-.165c-.017-.115-.033-.23-.033-.346l-.05-.677c-.016-.892.033-1.734.133-2.609l.066-.594h1.076c-.05-.05-.083-.116-.133-.165a16.85 16.85 0 0 1-.976-1.437 18.837 18.837 0 0 1-1.573-3.104c-.231-.528-.397-1.09-.579-1.634-.149-.561-.314-1.123-.414-1.7-.231-1.156-.297-2.328-.314-3.484Z" />
  <path fill="#E9F3FE"
    d="M51.903 55.274s1.093 23.526 26.482 22.7c0 0-.083 1.008-.894 1.404-.38.182-1.258.462-2.383.677l-.861-1.47.447 1.536c-.811.132-1.722.231-2.665.248-.149-1.123-.347-2.279-.48-2.18-.116.083-.397 1.09-.645 2.147h-.05c-.629-.05-1.638-.248-2.863-.628.215-1.123.397-2.278.265-2.311-.133-.033-.91.875-1.689 1.832a30.975 30.975 0 0 1-3.061-1.337c.248-1.056.413-2.03.28-2.146-.132-.1-.91.545-1.77 1.337a29.113 29.113 0 0 1-2.085-1.32l.711-2.23-1.191 1.9c-2.748-1.982-5.313-4.59-6.935-7.926-4.303-8.865-.613-12.233-.613-12.233Z" />
  <path fill="#fff"
    d="M119.695 53.97c-.397 1.157-.016 2.51.861 3.055.877.545 1.92.033 2.317-1.106.397-1.14.016-2.51-.861-3.054-.877-.545-1.92-.05-2.317 1.106Z" />
  <path fill="#260E07"
    d="M105.163 56.1c.083.661.166 1.272.265 1.883.116.578.232 1.139.331 1.667.133.529.249 1.008.364 1.453.116.446.249.859.364 1.222.216.743.447 1.288.58 1.684.149.38.215.594.215.594s-.05-.214-.149-.61c-.099-.397-.265-.975-.414-1.718-.182-.742-.314-1.65-.496-2.69-.067-.529-.133-1.09-.199-1.685-.05-.578-.116-1.205-.149-1.849a39.01 39.01 0 0 1 0-4.177c.033-.644.099-1.304.182-1.964 8.789-7.15 16.17-6.026 16.17-6.026.215.049.431.099.613.148.546.925 1.009 1.85 1.39 2.74a39.4 39.4 0 0 1 1.258 3.303c.314 1.007.579 1.898.745 2.641.182.743.314 1.321.397 1.717.082.397.132.611.132.611s-.016-.214-.066-.627a25.49 25.49 0 0 0-.215-1.767 33.344 33.344 0 0 0-.53-2.707 26.493 26.493 0 0 0-1.059-3.451 23.849 23.849 0 0 0-.497-1.222c3.112.644 4.949-2.278 4.949-2.278-2.152 1.816-3.856 1.387-4.866.743 3.393-1.981 4.717-6.753 4.717-6.753-2.185 4.26-4.386 5.02-5.776 4.953 2.383-5.3 1.969-13.785 1.969-13.785-.628 9.724-2.912 11.556-4.137 11.837a15.346 15.346 0 0 0-1.126-1.205c-.612-.578-1.307-1.14-2.085-1.585-.778-.446-1.639-.809-2.582-.958-.232-.05-.463-.05-.712-.082-.231 0-.48-.017-.711 0l-.364.033c-.067.016-.1 0-.199.016l-.166.033-.314.05-.364.099c-.96.264-1.788.727-2.532 1.32-1.473 1.206-2.467 2.791-3.211 4.392a15.796 15.796 0 0 0-.911 2.46c-.231.826-.446 1.651-.579 2.477-.314 1.634-.414 3.252-.447 4.771a31.838 31.838 0 0 0 .215 4.293Zm.894-6.24a29.93 29.93 0 0 1 .414-2.592c.331-1.568.811-3.153 1.506-4.656.695-1.486 1.639-2.922 2.896-3.93.613-.51 1.341-.907 2.053-1.105l.265-.083.314-.066.166-.033s.082 0 .115-.016l.282-.033c.198-.017.38 0 .579 0 .199.016.381.033.579.066 1.54.247 2.963 1.106 4.105 2.162 1.158 1.057 2.118 2.279 2.913 3.5-10.146-.528-15.541 5.96-16.187 6.786Z" />
  <path fill="#FFCE00"
    d="m102.151 61.614-.827 6.637s1.903 8.238 4.485 12.63c0 0 4.071-6.06 3.889-12.68 0 0-1.009-9.592-7.547-6.587Z" />
  <path fill="#FFCE00"
    d="m102.151 61.614-.827 6.637s1.903 8.238 4.485 12.63c0 0 4.071-6.06 3.889-12.68 0 0-1.009-9.592-7.547-6.587Z" />
  <path fill="#F8A50C"
    d="M109.003 65.23c0 .231 0 .446-.016.677-.083 1.09-.447 2.229-1.506 2.724-.464.215-1.01.28-1.44-.016-.398-.281-.629-.727-.844-1.156-.514-1.057-.795-2.278-1.54-3.203-.397-.479-.728-.924-1.026-1.47-.165-.28-.331-.594-.529-.858l-.795 6.307s1.903 8.238 4.485 12.63c0 0 4.072-6.06 3.89-12.68.016.017-.133-1.386-.679-2.955Z" />
  <path fill="#C1981C"
    d="m102.582 61.83-.149-.067c-.067 0-.1-.033-.166-.05l-.149-.099-.86 6.604v.033c.016.066 1.555 7 3.839 11.656l.695.958-.182-1.14c.977-3.697 1.225-6.273 1.126-9.327-.099-2.427-.464-8.173-4.154-8.569Z" />
  <path fill="#1B1A35"
    d="M103.393 65.79c-.033.826.198 1.52.513 1.536.314.017.596-.644.629-1.486.033-.825-.199-1.519-.513-1.535-.315 0-.596.66-.629 1.486Z"
    opacity=".8" />
  <path fill="#FACA89"
    d="M109.467 69.026c-.066-.297-.215-.594-.331-.875-.182-.429-.447-1.04-.944-1.155-.695-.166-.893.511-.893 1.04-.017.842.082 1.684.066 2.526-.017.677-.1 1.37-.133 2.047-.033.594-.115 1.436.249 1.948.281.413.678.1.926-.182.298-.346.514-.76.696-1.205.231-.924.38-1.733.48-2.377-.017-.132-.034-.28-.05-.413-.017-.446.033-.924-.066-1.354Z" />
  <path fill="#fff"
    d="M107.679 71.422c.166.297.431.446.762.396.314-.05.463-.33.562-.594a2.727 2.727 0 0 0 .033-2.014c-.115-.33-.364-.793-.728-.925-.232-.082-.447.033-.629.182-.049.066-.116.115-.149.198-.049.115-.049.198-.066.264 0 .033 0 .082-.016.116v.016c0 .083-.017.149-.017.231-.017.363-.083.743-.066 1.106.033.364.149.71.314 1.024Z" />
  <defs>
    <linearGradient id="a" x1="97.198" x2="64.4" y1="110.816" y2="88.258"
      gradientUnits="userSpaceOnUse">
      <stop stop-color="#003A5F" />
      <stop offset="1" stop-color="#003A5F" stop-opacity="0" />
    </linearGradient>
    <linearGradient id="b" x1="64.402" x2="72.976" y1="41.584" y2="62.444"
      gradientUnits="userSpaceOnUse">
      <stop />
      <stop offset="1" stop-opacity="0" />
    </linearGradient>
    <linearGradient id="c" x1="112.715" x2="118.339" y1="48.229" y2="73.907"
      gradientUnits="userSpaceOnUse">
      <stop />
      <stop offset="1" stop-opacity="0" />
    </linearGradient>
  </defs>
</svg>
